<?xml version="1.0" encoding="utf-8"?>
<!-- Generator: Adobe Illustrator 23.0.3, SVG Export Plug-In . SVG Version: 6.00 Build 0)  -->
<svg version="1.1" id="Layer_1" xmlns="http://www.w3.org/2000/svg" xmlns:xlink="http://www.w3.org/1999/xlink" x="0px" y="0px"
	 viewBox="0 0 512 512" style="enable-background:new 0 0 512 512;" xml:space="preserve">
<style type="text/css">
	.st0{fill-rule:evenodd;clip-rule:evenodd;fill:#FFFFFF;}
</style>
<g>
	<g>
		<path class="st0" d="M387.6,351c-51.6,28-76.7-15.4-141.2-7.8c-60.7,8.3-85.9,31.6-93.5,43.6c2.6,4.7,9.3,1.9,11.2,0.7
			c37.3-23.8,75.5-19,95.5-11.5c73.4,30.2,113.1,7,151.6-18.9C433.7,334.1,436.9,326.6,387.6,351z"/>
		<path class="st0" d="M235,330.3c39.8-1.8,61.8-23.8,75.1-35.5c22.1-19.4,3.2-26.4-12.4-9.2c-2.8,3.1-21.7,8.5-28.9,7.6
			c-73.7,2.3-121.1-39.7-116.9-87.6c5-56.6,34-117.5,98-103c36.4,0.1,70.1,35.8,70.7,68.5c-1.2,21.1-6.3,53.2-20.8,57.4
			c-14,4-53.5-1.8-54.4-16.7c7.7-17.7,52.6-40,32.6-72.2c-7.4-6.6-22.4-9.1-36.1,1.6c-27.2,21.4-84.7,72-36.1,110.9
			c72.2,25.8,97.4,5,117.7-22.3c16.9-22.7,34.6-52.4,36.3-77.8c-8.3-95.8-93.8-93.9-143.5-76.5C141.2,121.4,93.5,220.9,122,280.1
			C153.1,316.6,190,332,235,330.3z M225.1,198.4c-1.2-16.1,4.8-28.4,14.5-28.7c7.8-0.2,9.8,7.6,3.3,22
			C238.5,200.4,227.3,210.6,225.1,198.4z"/>
		<path class="st0" d="M318.4,247.8c29.9-3.5,60.7-4.6,93.7-6.5c37.3-40.9,56.4-65.4,99.9-106.4c-54.9,8.3-103.2,18.1-146.4,29.8
			c-5.6,24.9-22,50.9-35.9,69.6C326.2,239,322.5,243.5,318.4,247.8z"/>
		<path class="st0" d="M122.4,291.8C77.7,333.3,39.3,383.9,0,445.7c10.3-10.1,15.1,4.1,24.2-7.1c45.6-56.8,86.1-96.5,123.9-124.6
			C139.1,307.8,130.5,300.4,122.4,291.8z"/>
	</g>
	<path class="st0" d="M265.5,199.2c-0.1,0.1-0.2,0.2-0.3,0.3c-4.7,4.8-9.3,9.3-11.7,13.1c1.2,1.5,4.2,3.6,9.8,5.6
		c7.2,2.5,16.9,4.1,25.3,4.1c5.2,0,8-0.6,9.2-0.9c5.6-1.6,12-15.8,14.6-40.3C296,186.7,280.4,192.7,265.5,199.2z"/>
	<path class="st0" d="M202.3,258.7l-1-0.8c-6.3-5.1-11.3-10.5-14.9-16.4c-4.4,2.9-8.7,5.8-12.9,8.8c0.9,1.1,1.8,2.2,2.8,3.2
		c8.9,9.7,20.6,17.4,34.4,22.9c7.1-3.3,14.2-6.2,21.3-8.9c-8.9-2-18.3-4.8-28.6-8.5L202.3,258.7z"/>
</g>
</svg>
