 <svg version="1.0" xmlns="http://www.w3.org/2000/svg" width="700.000000pt" height="700.000000pt" viewBox="0 0 700.000000 700.000000" preserveAspectRatio="xMidYMid meet">
<metadata>
Created by potrace 1.12, written by Peter Selinger 2001-2015
</metadata>
<g transform="translate(0.000000,700.000000) scale(0.100000,-0.100000)" fill="#ffffff" stroke="none">
<path d="M0 6990 c0 -5 5 -10 10 -10 6 0 10 5 10 10 0 6 -4 10 -10 10 -5 0
-10 -4 -10 -10z"></path>
<path d="M6980 6990 c0 -5 5 -10 10 -10 6 0 10 5 10 10 0 6 -4 10 -10 10 -5 0
-10 -4 -10 -10z"></path>
<path d="M3145 6310 c-100 -15 -143 -30 -256 -85 -113 -55 -83 -28 -928 -855
-422 -414 -456 -453 -525 -615 -21 -49 -44 -105 -52 -123 -8 -18 -14 -40 -14
-50 0 -9 -6 -37 -14 -62 -18 -56 -39 -161 -63 -305 -26 -159 -26 -686 0 -825
29 -156 48 -243 59 -275 5 -16 13 -46 17 -65 13 -57 76 -238 111 -315 5 -11
18 -42 30 -70 20 -47 54 -115 124 -248 42 -79 68 -121 145 -237 51 -78 232
-316 281 -370 190 -211 253 -274 448 -449 112 -100 405 -322 565 -427 73 -47
144 -95 159 -105 15 -10 29 -19 32 -19 3 0 25 -13 49 -30 25 -16 47 -30 50
-30 3 0 29 -16 58 -35 30 -19 65 -35 79 -35 14 0 48 15 76 32 28 18 66 42 85
52 19 11 57 34 84 51 28 18 82 52 120 77 39 24 89 57 113 73 40 29 256 186
277 202 6 5 42 33 80 63 39 30 113 93 165 139 357 317 597 600 825 973 37 60
130 243 164 323 12 28 26 59 31 70 35 77 98 254 109 305 4 19 13 51 19 70 16
53 32 127 42 200 5 36 15 88 22 115 18 71 18 690 0 760 -7 28 -17 82 -22 120
-9 74 -22 138 -45 220 -8 28 -16 59 -19 70 -2 11 -14 45 -26 75 -12 30 -25 66
-29 80 -44 136 -218 340 -338 394 -32 15 -65 31 -74 35 -8 5 -56 14 -107 21
-186 26 -383 -28 -505 -136 -20 -19 -44 -34 -52 -34 -17 0 -44 26 -137 131
-71 79 -78 100 -52 137 14 21 22 22 155 22 114 0 139 -3 139 -14 0 -8 -5 -18
-10 -21 -16 -10 8 -35 32 -35 38 0 58 22 99 108 22 48 45 94 50 102 5 8 12 22
15 30 9 24 29 70 64 142 18 37 30 74 27 82 -7 17 -111 94 -315 235 l-74 51
-179 0 c-209 0 -190 -6 -389 125 -182 119 -277 160 -425 185 -61 10 -281 10
-350 0z m320 -84 c133 -21 250 -65 340 -130 16 -11 37 -25 47 -31 9 -5 41 -26
70 -46 29 -20 71 -45 93 -57 99 -50 108 -52 286 -52 l170 0 62 -45 c34 -25 94
-67 132 -94 101 -71 108 -78 100 -109 -9 -37 -106 -235 -119 -244 -6 -4 -80
-8 -164 -8 -145 0 -156 1 -196 25 -46 27 -86 74 -86 102 0 22 -27 63 -41 63
-36 0 -3 -125 48 -183 38 -42 39 -50 17 -92 -9 -16 -22 -45 -29 -63 l-14 -33
85 -95 c47 -53 83 -101 81 -108 -2 -6 -30 -12 -63 -14 l-60 -3 -90 78 c-146
127 -174 147 -186 135 -10 -10 40 -77 120 -161 7 -7 12 -21 10 -30 -3 -14 -24
-16 -158 -19 -85 -1 -164 0 -175 2 -11 3 -69 53 -129 111 l-109 105 -54 0
c-64 0 -74 13 -49 69 14 30 17 59 14 147 -4 107 -10 133 -52 224 -26 55 -137
168 -191 194 -22 10 -51 25 -65 32 -14 7 -57 14 -95 16 -57 2 -70 0 -70 -12 0
-11 15 -17 50 -20 74 -9 159 -54 229 -124 68 -66 94 -114 121 -219 16 -58 16
-76 6 -125 -6 -31 -14 -69 -18 -84 -3 -15 -11 -33 -19 -39 -8 -6 -14 -18 -14
-27 0 -8 -16 -34 -35 -58 -19 -23 -35 -47 -35 -53 0 -7 40 -11 119 -11 l119 0
43 -36 c52 -43 72 -70 64 -84 -10 -16 -1057 -14 -1073 2 -8 8 -12 66 -12 194
0 126 -4 185 -11 190 -7 4 -75 6 -153 5 -142 -1 -171 4 -161 30 9 23 664 659
679 659 4 0 22 11 39 24 126 92 366 134 582 102z m-1067 -1086 c2 -141 -1
-195 -12 -225 -7 -22 -24 -74 -36 -115 -13 -41 -29 -92 -36 -113 -8 -20 -14
-44 -14 -53 0 -32 -63 -141 -103 -178 -23 -21 -71 -52 -107 -69 -56 -27 -76
-31 -146 -32 -48 0 -93 6 -110 14 -94 44 -120 61 -160 105 -71 78 -88 124 -88
241 -1 98 12 151 49 205 11 16 229 234 343 343 l71 67 173 -2 173 -3 3 -185z
m2687 -29 c122 -33 216 -102 318 -233 20 -26 97 -182 120 -243 31 -84 67 -228
78 -310 4 -33 12 -85 18 -115 21 -110 34 -347 27 -490 -9 -201 -22 -340 -35
-373 -6 -16 -11 -44 -11 -64 0 -19 -6 -56 -14 -82 -8 -25 -21 -71 -30 -101
-25 -91 -59 -194 -66 -205 -4 -5 -10 -23 -14 -40 -4 -16 -18 -52 -31 -80 -13
-27 -33 -72 -45 -100 -36 -84 -84 -176 -97 -187 -7 -6 -13 -19 -13 -29 0 -10
-5 -21 -11 -24 -5 -4 -15 -17 -20 -28 -5 -12 -18 -35 -29 -52 -11 -16 -23 -37
-27 -45 -7 -15 -54 -84 -129 -191 -178 -253 -510 -599 -769 -800 -38 -29 -74
-59 -80 -65 -20 -22 -93 -74 -104 -74 -6 0 -11 -4 -11 -9 0 -14 -282 -205
-484 -326 -59 -36 -116 -65 -127 -65 -23 0 -202 107 -379 226 -185 125 -230
157 -230 165 0 5 -5 9 -11 9 -11 0 -70 43 -119 87 -14 12 -53 44 -86 70 -256
200 -606 568 -759 796 -19 28 -53 78 -75 110 -22 32 -40 60 -40 62 0 2 -12 21
-26 42 -14 21 -30 47 -35 58 -8 19 -14 28 -39 73 -12 20 -115 232 -135 277
-36 80 -45 104 -45 117 0 8 -4 18 -9 24 -4 5 -18 43 -31 84 -12 41 -29 92 -36
113 -8 20 -14 48 -14 61 0 13 -7 40 -15 59 -8 20 -15 54 -15 76 0 22 -5 52
-11 68 -13 30 -24 149 -35 357 -8 147 9 417 31 516 8 36 15 82 15 103 0 21 7
54 15 74 8 19 15 48 15 63 0 15 7 44 15 63 8 20 15 47 15 61 0 62 42 34 63
-41 6 -24 14 -43 18 -43 4 0 12 -15 18 -32 8 -25 7 -54 -5 -118 -16 -88 -42
-297 -43 -340 -1 -26 14 -35 229 -133 36 -16 72 -33 80 -38 8 -5 22 -12 30
-15 27 -11 224 -105 252 -120 26 -14 29 -13 58 17 16 18 30 37 30 43 0 7 -57
86 -126 176 -69 91 -144 190 -167 220 -22 30 -44 57 -49 58 -4 2 -8 15 -8 29
0 19 4 24 16 19 9 -3 53 -6 100 -6 l84 0 32 -56 c52 -88 58 -97 78 -129 11
-16 24 -39 30 -50 6 -11 19 -33 30 -50 11 -16 24 -39 30 -50 38 -73 46 -80 90
-78 24 1 48 7 53 12 6 6 6 47 -2 118 -6 59 -16 205 -20 322 -8 196 -7 220 10
270 10 31 28 90 40 131 12 41 28 89 35 107 8 17 14 39 14 50 0 10 7 29 16 41
l15 22 1018 0 1017 0 64 55 c145 122 331 170 495 126z"></path>
<path d="M3261 6121 c-23 -15 -4 -28 51 -35 137 -15 204 -36 290 -88 64 -39
167 -111 189 -133 9 -8 20 -15 26 -15 6 0 16 -7 23 -15 7 -8 21 -15 31 -15 29
0 26 70 -4 98 -13 12 -26 22 -30 22 -4 0 -26 12 -50 27 -60 39 -70 45 -134 77
-32 15 -66 32 -76 37 -10 6 -41 14 -70 20 -29 6 -70 15 -92 20 -52 11 -136 11
-154 0z"></path>
<path d="M4144 5786 c-3 -13 -4 -38 -2 -57 2 -26 8 -35 25 -37 17 -3 26 3 33
22 5 15 21 31 35 38 16 7 25 19 25 35 0 21 -4 23 -55 23 -49 0 -55 -2 -61 -24z"></path>
<path d="M4450 5711 c0 -31 4 -41 20 -46 22 -7 70 18 70 36 0 29 -22 49 -55
49 -34 0 -35 -1 -35 -39z"></path>
<path d="M2204 5183 c-10 -16 -23 -36 -29 -45 -15 -25 -88 -140 -150 -238 -30
-47 -58 -92 -62 -100 -3 -8 -18 -31 -33 -50 -15 -19 -30 -45 -34 -57 -4 -13
-12 -23 -17 -23 -5 0 -9 -13 -9 -30 0 -54 1 -52 129 124 36 50 69 96 73 101
39 50 188 255 197 272 31 60 -28 101 -65 46z"></path>
<path d="M4895 4976 c-5 -2 -37 -12 -70 -22 -66 -19 -149 -76 -190 -130 l-26
-34 -562 0 c-309 0 -567 -4 -573 -8 -6 -4 -48 -56 -94 -117 -46 -60 -90 -117
-97 -125 -30 -33 -53 -63 -53 -69 0 -3 -14 -22 -31 -41 -17 -19 -45 -55 -62
-80 -17 -25 -40 -54 -50 -65 -10 -11 -33 -40 -50 -65 -17 -25 -34 -47 -37 -50
-26 -20 -290 -382 -290 -397 1 -10 12 -31 25 -48 24 -29 25 -30 57 -14 43 21
88 41 173 79 114 52 147 66 209 95 132 61 159 62 138 7 -6 -15 -13 -48 -17
-74 -9 -70 -22 -80 -155 -128 -19 -6 -51 -16 -70 -20 -33 -7 -48 -12 -140 -45
-19 -7 -53 -17 -75 -22 l-40 -8 3 -52 c4 -76 -16 -78 -140 -13 -62 33 -138 50
-224 50 -100 0 -169 -17 -282 -71 -36 -17 -70 -28 -78 -25 -8 3 -14 26 -16 63
-3 57 -3 58 -38 64 -19 4 -51 12 -70 19 -19 7 -51 18 -70 25 -19 7 -51 18 -70
24 -19 7 -49 16 -65 20 -17 4 -40 13 -52 19 -12 7 -30 12 -40 12 -10 0 -31 7
-47 15 -15 8 -36 15 -45 15 -9 0 -29 7 -45 15 -15 8 -30 15 -32 15 -9 0 -1
-209 9 -250 l12 -45 65 -7 c41 -4 83 -16 114 -32 100 -54 151 -66 286 -66 91
0 133 4 154 15 15 8 32 15 37 15 5 0 37 14 71 32 61 31 67 32 193 32 126 1
132 0 195 -31 126 -61 146 -65 292 -61 73 2 142 8 153 14 97 53 120 54 120 8
0 -26 4 -29 30 -29 27 0 30 -3 33 -37 4 -50 -11 -74 -52 -82 -19 -4 -54 -17
-78 -30 -149 -79 -307 -79 -458 1 -91 48 -252 66 -353 38 -61 -16 -114 -36
-151 -56 -43 -24 -125 -41 -196 -42 -79 0 -128 13 -233 61 -71 33 -175 58
-187 45 -13 -13 8 -53 27 -53 18 0 92 -23 128 -40 122 -56 207 -75 297 -67 96
9 148 22 208 52 158 79 288 79 457 0 65 -31 169 -55 233 -55 73 0 178 25 245
59 49 25 62 28 73 17 10 -10 10 -22 2 -57 -6 -24 -15 -62 -20 -84 -10 -49 -29
-64 -126 -105 -73 -30 -82 -31 -188 -28 -99 3 -118 7 -176 34 -132 63 -147 66
-294 63 -90 -3 -139 -8 -148 -16 -6 -7 -18 -13 -26 -13 -7 0 -47 -16 -88 -36
l-75 -36 -117 4 c-65 2 -126 9 -137 15 -11 7 -42 22 -70 33 -27 12 -64 28 -82
36 -55 25 -72 14 -49 -33 8 -15 22 -48 31 -73 9 -25 23 -58 29 -75 22 -52 156
-319 177 -350 10 -16 22 -37 26 -45 4 -8 19 -33 33 -55 14 -22 30 -47 35 -56
148 -234 454 -576 702 -785 61 -52 117 -100 125 -107 15 -15 109 -87 177 -135
25 -18 55 -41 66 -50 39 -32 176 -122 185 -122 6 0 10 -4 10 -8 0 -5 10 -14
23 -21 12 -6 34 -19 49 -29 15 -9 60 -37 100 -61 40 -25 75 -48 76 -53 2 -4
12 -8 22 -8 10 0 20 4 22 8 2 5 36 28 76 53 40 24 85 52 100 61 15 10 34 21
42 25 8 3 31 19 51 35 20 15 40 28 43 28 3 0 26 15 50 33 24 17 54 40 67 49
13 9 53 38 88 65 35 26 77 58 93 69 28 21 111 89 132 109 6 6 49 42 96 82 158
133 452 446 550 585 17 24 51 70 75 103 25 33 50 69 55 80 6 11 19 34 30 50
11 17 24 39 30 50 6 11 19 34 30 50 57 90 157 297 205 425 9 25 23 58 31 73
14 29 11 47 -7 47 -9 0 -52 -18 -134 -55 -104 -47 -104 -47 -224 -43 -64 2
-125 9 -136 15 -11 7 -42 22 -70 34 -27 12 -59 26 -70 32 -11 7 -78 13 -148
15 -141 4 -176 -3 -297 -61 -59 -29 -76 -32 -176 -35 -106 -3 -115 -2 -188 28
-99 41 -116 56 -127 110 -5 25 -16 77 -23 115 -8 39 -20 87 -26 108 -6 21 -10
52 -8 70 3 28 6 32 31 29 39 -4 42 14 18 107 -12 44 -21 89 -21 100 0 19 270
293 295 299 7 2 50 -24 95 -57 45 -34 87 -61 93 -61 7 0 75 63 152 140 77 77
147 140 155 140 8 0 78 -63 155 -140 77 -77 145 -140 151 -140 13 0 101 57
146 95 16 14 35 25 42 25 7 0 104 -92 216 -205 112 -112 207 -202 211 -199 33
20 36 452 5 684 -21 157 -51 296 -81 380 -26 71 -47 125 -56 140 -4 8 -18 35
-31 60 -24 48 -158 190 -180 190 -7 0 -26 7 -43 16 -27 14 -166 29 -190 20z
m-319 -453 c17 -56 29 -68 79 -73 27 -3 50 -11 53 -18 2 -7 -13 -28 -33 -47
-39 -35 -39 -37 -19 -117 8 -36 -10 -37 -60 -3 -20 14 -41 25 -47 25 -6 0 -25
-11 -43 -25 -18 -14 -38 -25 -44 -25 -17 0 -15 52 4 78 15 22 14 24 -33 67
-56 52 -50 65 30 65 36 0 47 4 47 16 0 24 32 74 47 74 8 0 16 -8 19 -17z
m-1044 -164 c10 -41 18 -88 18 -106 0 -17 5 -44 11 -60 6 -15 15 -57 19 -93
10 -69 22 -135 46 -240 8 -36 14 -77 14 -92 0 -15 5 -39 11 -54 5 -16 14 -58
19 -94 5 -36 12 -80 15 -97 7 -32 7 -33 -28 -33 -20 0 -38 -4 -41 -8 -2 -4 1
-28 9 -52 14 -51 33 -140 45 -217 4 -28 13 -66 18 -85 10 -31 24 -99 42 -198
5 -25 11 -57 15 -72 7 -28 7 -28 -45 -28 -52 0 -52 0 -46 -27 3 -16 10 -54 15
-85 5 -31 14 -72 20 -90 5 -18 15 -60 21 -93 6 -33 17 -89 25 -125 8 -36 19
-92 25 -125 6 -33 15 -74 21 -91 12 -39 12 -74 -1 -74 -5 0 -26 7 -47 16 -21
9 -51 23 -68 30 -16 7 -46 20 -67 28 -20 9 -41 16 -47 16 -6 0 -20 6 -31 12
-16 10 -24 10 -40 0 -11 -6 -25 -12 -31 -12 -6 0 -27 -7 -47 -16 -21 -8 -50
-21 -67 -28 -16 -7 -47 -21 -68 -30 -21 -9 -43 -16 -48 -16 -14 0 -7 42 46
290 22 101 41 193 55 265 6 33 18 79 25 102 7 23 11 44 8 47 -4 3 -25 6 -48 6
-23 0 -44 2 -47 5 -6 6 6 81 26 170 15 60 33 150 62 292 8 43 20 96 25 118 17
70 17 70 -25 73 -37 3 -38 4 -31 35 4 18 10 57 15 87 4 30 13 82 20 115 6 33
17 92 25 130 7 39 19 95 25 125 6 30 15 85 20 122 5 37 13 76 19 87 6 11 11
36 11 56 0 30 14 103 36 183 9 31 29 1 46 -69z m1556 -49 l22 -50 50 0 c33 0
50 -4 50 -12 -1 -18 -21 -43 -47 -57 -24 -12 -33 -64 -13 -76 12 -7 14 -52 2
-59 -4 -2 -27 9 -50 25 l-44 30 -48 -30 c-26 -16 -51 -27 -54 -24 -10 10 -7
51 4 58 20 12 11 64 -12 76 -27 14 -47 39 -48 57 0 8 17 12 51 12 49 0 50 1
69 43 32 73 39 74 68 7z m-1010 10 c6 -41 30 -60 78 -60 59 0 65 -17 21 -54
-39 -33 -46 -61 -27 -111 15 -39 -12 -43 -61 -10 l-39 28 -44 -31 c-24 -17
-46 -28 -50 -25 -10 10 -7 50 6 79 11 25 10 29 -30 63 -57 49 -55 61 13 61 44
0 57 4 61 18 21 63 27 73 48 70 14 -2 22 -12 24 -28z m-1408 -1433 c14 -7 56
-23 94 -36 94 -32 240 -26 334 12 55 23 64 24 69 10 3 -8 1 -30 -5 -47 -6 -17
-14 -51 -18 -75 l-7 -44 46 6 c55 8 64 -6 47 -74 -13 -52 -44 -197 -83 -389
-9 -42 -21 -88 -26 -103 -6 -16 -11 -43 -11 -61 0 -19 -7 -50 -15 -69 -8 -20
-11 -38 -6 -42 5 -3 61 21 124 54 135 69 165 78 174 56 7 -20 -14 -155 -28
-171 -5 -6 -38 -14 -72 -16 -56 -4 -150 -38 -222 -81 -11 -6 -72 -13 -136 -15
-114 -4 -116 -4 -205 33 -49 20 -92 42 -96 48 -4 7 -8 213 -8 459 0 305 -3
449 -11 453 -5 4 -19 -1 -30 -11 -18 -16 -19 -35 -19 -466 l0 -449 -25 -25
c-14 -14 -30 -22 -35 -19 -6 4 -10 184 -10 499 l0 492 57 42 c61 45 83 50 123
29z m1783 -29 l57 -42 0 -493 c0 -482 0 -493 -19 -493 -11 0 -27 10 -35 22
-14 20 -16 81 -16 468 -1 369 -3 448 -15 464 -8 11 -21 16 -29 13 -14 -6 -16
-63 -18 -463 l-3 -458 -90 -37 c-84 -36 -97 -38 -192 -39 -107 0 -136 7 -263
67 -33 16 -81 29 -120 32 -58 5 -66 9 -78 33 -7 15 -14 57 -15 95 -2 67 -2 68
23 65 14 -1 80 -30 147 -64 68 -34 125 -59 128 -56 4 3 -1 23 -9 43 -9 21 -16
55 -16 77 0 22 -5 48 -10 58 -6 10 -17 54 -26 97 -35 173 -69 330 -84 396 -17
68 -10 78 45 70 43 -5 45 -5 45 19 0 14 -7 48 -16 76 -26 78 -17 86 58 55 94
-38 240 -44 334 -12 38 13 80 29 94 36 40 21 62 16 123 -29z m-925 -703 c28
-14 31 -21 37 -79 4 -35 8 -213 8 -397 l2 -334 -75 0 -75 0 -3 145 c-2 80 2
255 7 390 l11 245 27 22 c33 27 24 26 61 8z m-170 -334 c5 -31 -5 -39 -58 -50
-58 -12 -117 -34 -132 -49 -7 -7 -20 -12 -30 -12 -10 0 -30 -7 -43 -16 -36
-24 -317 -24 -363 0 -17 9 -39 16 -50 16 -10 0 -23 5 -30 12 -7 7 -26 17 -44
22 -44 15 -59 43 -33 62 21 16 65 11 100 -10 64 -39 121 -51 235 -51 107 0
121 2 200 34 47 18 91 38 97 43 13 10 105 27 133 24 8 -1 17 -12 18 -25z m442
-3 c77 -33 104 -44 140 -59 23 -9 75 -14 150 -14 114 0 171 12 235 51 35 21
79 26 100 10 26 -19 11 -47 -33 -62 -18 -5 -37 -15 -44 -22 -7 -7 -20 -12 -30
-12 -11 0 -33 -7 -50 -16 -50 -26 -293 -23 -371 3 -32 11 -63 25 -70 32 -6 6
-18 11 -27 11 -9 0 -25 7 -36 15 -10 8 -34 15 -52 15 -46 0 -72 16 -72 44 0
12 3 25 6 29 11 11 108 -5 154 -25z"></path>
<path d="M2696 2654 c-9 -23 18 -51 63 -65 42 -14 214 -18 284 -6 51 9 76 38
63 72 -5 14 -9 15 -22 5 -49 -42 -306 -42 -347 -1 -16 16 -34 14 -41 -5z"></path>
<path d="M2700 2365 c0 -21 9 -30 43 -45 34 -16 65 -20 164 -20 67 0 128 3
137 6 9 3 16 16 16 29 0 22 -2 22 -132 21 -108 -1 -139 2 -167 17 -47 24 -61
22 -61 -8z"></path>
<path d="M2700 2086 c0 -19 10 -28 50 -45 42 -18 66 -21 143 -19 l92 3 3 28 3
27 -96 0 c-62 0 -108 5 -132 15 -49 21 -63 19 -63 -9z"></path>
<path d="M3894 2655 c-11 -29 12 -62 48 -68 134 -24 290 -14 337 21 30 22 34
32 21 52 -8 13 -12 13 -32 1 -69 -44 -301 -44 -352 -1 -13 10 -17 9 -22 -5z"></path>
<path d="M4241 2373 c-19 -14 -48 -17 -162 -17 -124 0 -139 -1 -139 -17 0 -36
24 -41 167 -37 126 3 141 5 171 27 36 25 39 55 7 58 -11 1 -31 -5 -44 -14z"></path>
<path d="M4235 2095 c-19 -9 -67 -14 -128 -15 l-98 0 3 -27 c3 -28 3 -28 93
-31 120 -4 215 31 199 73 -7 18 -29 18 -69 0z"></path>
<path d="M2571 4781 c-12 -7 -16 -53 -22 -208 -4 -109 -12 -238 -18 -288 -5
-49 -11 -164 -13 -254 l-3 -164 42 -12 c47 -14 49 -13 99 81 12 22 35 61 50
85 16 24 37 59 47 78 10 19 31 52 45 75 37 58 50 79 58 96 4 8 19 33 33 55 40
62 49 78 60 100 5 11 21 37 36 59 14 21 37 59 51 85 14 25 33 58 42 73 53 82
80 133 76 140 -7 11 -566 10 -583 -1z"></path>
<path d="M4330 3470 c-22 -22 -24 -37 -11 -74 7 -18 6 -28 -5 -36 -7 -7 -14
-25 -14 -41 0 -68 127 -86 160 -23 12 21 12 29 -2 52 -10 18 -13 42 -10 71 3
35 1 47 -14 58 -27 20 -81 16 -104 -7z m80 -35 c0 -16 -34 -38 -44 -28 -3 3
-6 15 -6 25 0 13 7 18 25 18 15 0 25 -6 25 -15z m-2 -113 c-2 -9 -13 -18 -26
-20 -17 -3 -22 1 -22 21 0 13 3 27 6 30 12 11 45 -14 42 -31z"></path>
<path d="M5038 3483 c-20 -5 -28 -30 -28 -88 0 -22 -1 -57 -2 -78 -2 -45 11
-57 64 -57 61 0 88 15 88 50 0 17 -6 39 -12 50 -10 16 -10 24 0 40 18 30 15
46 -14 69 -25 20 -57 24 -96 14z m62 -51 c0 -26 -11 -34 -27 -21 -20 17 -16
39 7 39 13 0 20 -7 20 -18z m0 -108 c0 -20 -4 -25 -22 -22 -28 4 -33 21 -13
42 21 20 35 12 35 -20z"></path>
<path d="M4017 3473 c-4 -3 1 -18 10 -32 12 -17 20 -53 23 -101 4 -67 7 -75
25 -75 19 0 20 8 23 108 l3 107 -39 0 c-21 0 -42 -3 -45 -7z"></path>
<path d="M4698 3448 c-32 -42 -58 -93 -58 -113 0 -54 71 -92 136 -72 66 20 72
103 9 146 -38 26 -43 38 -20 47 25 10 17 24 -14 24 -21 0 -36 -9 -53 -32z m62
-93 c20 -25 8 -50 -25 -50 -24 0 -31 5 -33 24 -6 37 34 55 58 26z"></path>
<path d="M0 10 c0 -5 5 -10 10 -10 6 0 10 5 10 10 0 6 -4 10 -10 10 -5 0 -10
-4 -10 -10z"></path>
<path d="M6980 10 c0 -5 5 -10 10 -10 6 0 10 5 10 10 0 6 -4 10 -10 10 -5 0
-10 -4 -10 -10z"></path>
</g>
</svg>